<svg height="800px" width="800px" version="1.1" id="Capa_1" xmlns="http://www.w3.org/2000/svg"
    xmlns:xlink="http://www.w3.org/1999/xlink" viewBox="0 0 392.489 392.489" xml:space="preserve"
    fill="#000000">

<g id="SVGRepo_bgCarrier" stroke-width="0"/>

<g id="SVGRepo_tracerCarrier" stroke-linecap="round" stroke-linejoin="round"/>

<g id="SVGRepo_iconCarrier"> <g> <g> <path style="fill:#808080;" d="M335.01,253.723l57.479-57.479l-57.479-57.479V57.473h-81.287L196.244,0l-57.479,57.479H57.479 v81.293L0,196.244l57.479,57.479v81.293h81.287l57.479,57.473l57.479-57.479h81.293v-81.287H335.01z M106.556,285.932 l-49.083-49.083l0,0l-40.599-40.605l179.37-179.37l89.682,89.688l49.083,49.083l0,0l40.605,40.599l-179.37,179.37L106.556,285.932 z"/> <path style="fill:#808080;" d="M114.021,114.021c-8.324,8.318-8.324,21.857,0,30.186c4.034,4.034,9.392,6.253,15.09,6.253 c5.704,0,11.063-2.22,15.09-6.253c4.034-4.034,6.253-9.392,6.253-15.09c0-5.704-2.22-11.063-6.253-15.09 C136.158,105.966,122.094,105.96,114.021,114.021z M135.77,135.77c-3.55,3.556-9.75,3.562-13.306,0 c-3.664-3.67-3.664-9.642,0-13.306c1.778-1.778,4.141-2.757,6.653-2.757c2.518,0,4.875,0.979,6.653,2.757 c1.778,1.778,2.757,4.135,2.757,6.653C138.527,131.629,137.548,133.992,135.77,135.77z"/> </g> </g> </g>

</svg>